<svg width="134" height="32" viewBox="0 0 134 32" fill="none" xmlns="http://www.w3.org/2000/svg">
<path d="M23.2031 12.7959L13.3771 3C13.3771 3 7.05193 8.97037 2.99904 12.7959" stroke="#7FD858" stroke-width="6" stroke-linecap="round" stroke-linejoin="round"/>
<path d="M33 18.9184L23.174 28.7143C23.174 28.7143 16.8488 22.7439 12.7959 18.9184" stroke="#7FD858" stroke-width="6" stroke-linecap="round" stroke-linejoin="round"/>
<path d="M52.18 25.58L48.82 25.28L49.56 11.54C49.2133 11.62 48.8933 11.7133 48.6 11.82L48 8.42C48.7067 8.27333 49.58 8.12 50.62 7.96C51.66 7.8 52.7333 7.72 53.84 7.72C54.6933 7.72 55.56 7.81333 56.44 8C57.32 8.17333 58.16 8.46667 58.96 8.88C59.7733 9.28 60.4933 9.82 61.12 10.5C61.76 11.18 62.26 12.0133 62.62 13C62.9933 13.9867 63.18 15.1533 63.18 16.5C63.18 18.3933 62.8733 20.0133 62.26 21.36C61.66 22.6933 60.78 23.7133 59.62 24.42C58.4733 25.1267 57.0867 25.48 55.46 25.48C54.38 25.48 53.3133 25.28 52.26 24.88C52.2333 25.1467 52.2067 25.38 52.18 25.58ZM53.7 11.08C53.5133 11.08 53.32 11.08 53.12 11.08C52.9867 13.56 52.8667 15.6733 52.76 17.42C52.6533 19.1533 52.56 20.6 52.48 21.76C52.88 21.8933 53.32 22.0133 53.8 22.12C54.2933 22.2133 54.8067 22.26 55.34 22.26C56.42 22.26 57.2867 21.9867 57.94 21.44C58.6067 20.8933 59.0867 20.1733 59.38 19.28C59.6733 18.3733 59.82 17.3933 59.82 16.34C59.82 15.5 59.6933 14.7867 59.44 14.2C59.1867 13.6133 58.8533 13.1267 58.44 12.74C58.04 12.3533 57.6 12.0533 57.12 11.84C56.64 11.6133 56.1667 11.4467 55.7 11.34C55.2467 11.2333 54.84 11.1667 54.48 11.14C54.12 11.1 53.86 11.08 53.7 11.08ZM69.3375 25.64C68.4842 25.64 67.7775 25.4867 67.2175 25.18C66.6708 24.8867 66.2308 24.48 65.8975 23.96C65.5775 23.44 65.3375 22.86 65.1775 22.22C65.0308 21.5667 64.9308 20.8933 64.8775 20.2C64.8375 19.4933 64.8175 18.8133 64.8175 18.16C64.8175 17.4133 64.8375 16.6533 64.8775 15.88C64.9308 15.1067 64.9842 14.26 65.0375 13.34L68.6975 13.12C68.6575 13.4 68.5975 13.82 68.5175 14.38C68.4375 14.94 68.3642 15.58 68.2975 16.3C68.2308 17.02 68.1975 17.7733 68.1975 18.56C68.1975 19.8533 68.3108 20.8133 68.5375 21.44C68.7642 22.0533 69.1042 22.36 69.5575 22.36C70.4642 22.36 71.1308 21.7 71.5575 20.38C71.9842 19.06 72.1975 16.9733 72.1975 14.12V13.2L73.8975 13.16L75.9575 13.12C75.7708 14.3733 75.6308 15.5267 75.5375 16.58C75.4442 17.6333 75.3842 18.52 75.3575 19.24C75.3308 19.9467 75.3175 20.42 75.3175 20.66C75.3175 21.2733 75.3708 21.7133 75.4775 21.98C75.5842 22.2333 75.7708 22.36 76.0375 22.36C76.1708 22.36 76.3175 22.3333 76.4775 22.28C76.6375 22.2267 76.8242 22.1333 77.0375 22L76.8975 25.44C76.3908 25.52 75.9508 25.56 75.5775 25.56C74.9375 25.56 74.4108 25.44 73.9975 25.2C73.5975 24.96 73.2775 24.64 73.0375 24.24C72.6242 24.68 72.1108 25.02 71.4975 25.26C70.8975 25.5133 70.1775 25.64 69.3375 25.64ZM82.5866 25.58C81.8532 25.58 81.2466 25.42 80.7666 25.1C80.2999 24.7933 79.9266 24.3667 79.6466 23.82C79.3799 23.2733 79.1799 22.6467 79.0466 21.94C78.9266 21.2333 78.8466 20.48 78.8066 19.68C78.7799 18.8667 78.7666 18.0533 78.7666 17.24C78.7666 16.5333 78.7866 15.76 78.8266 14.92C78.8666 14.0667 78.9132 13.2067 78.9666 12.34C79.0332 11.46 79.0999 10.6333 79.1666 9.86C79.2466 9.08667 79.3199 8.41333 79.3866 7.84L83.0066 7.88C82.8999 8.56 82.7999 9.33333 82.7066 10.2C82.6132 11.0533 82.5332 11.92 82.4666 12.8C82.4132 13.68 82.3666 14.4933 82.3266 15.24C82.2999 15.9867 82.2866 16.58 82.2866 17.02C82.2866 18.2333 82.3066 19.1867 82.3466 19.88C82.3999 20.5733 82.4732 21.0667 82.5666 21.36C82.6732 21.64 82.8132 21.78 82.9866 21.78C83.2132 21.78 83.4599 21.64 83.7266 21.36C83.9932 21.0667 84.2532 20.74 84.5066 20.38L86.2066 23.76C85.7932 24.2133 85.2999 24.6267 84.7266 25C84.1532 25.3867 83.4399 25.58 82.5866 25.58ZM87.8648 11.08C87.8648 10.96 87.8582 10.84 87.8448 10.72C87.8448 10.5867 87.8448 10.44 87.8448 10.28C87.8448 9.85333 87.8582 9.4 87.8848 8.92C87.9115 8.44 87.9382 8.03333 87.9648 7.7L91.5248 7.76C91.4848 8.21333 91.4382 8.72667 91.3848 9.3C91.3448 9.87333 91.3182 10.4667 91.3048 11.08H87.8648ZM87.7848 25.4C87.7448 24.5733 87.7182 23.6933 87.7048 22.76C87.6915 21.8133 87.6848 20.8667 87.6848 19.92C87.6848 18.68 87.6982 17.4733 87.7248 16.3C87.7515 15.1267 87.7848 14.06 87.8248 13.1L91.2648 13.08C91.2115 13.6933 91.1782 14.4533 91.1648 15.36C91.1515 16.2533 91.1448 17.1933 91.1448 18.18C91.1448 19.1533 91.1515 20.1133 91.1648 21.06C91.1782 22.0067 91.1915 22.8667 91.2048 23.64C91.2315 24.4 91.2515 24.9867 91.2648 25.4H87.7848ZM93.3583 25.44C93.3183 24.2667 93.2849 23.18 93.2583 22.18C93.2449 21.18 93.2383 20.1933 93.2383 19.22C93.2383 18.2467 93.2449 17.2733 93.2583 16.3C93.2849 15.3133 93.3249 14.26 93.3783 13.14H96.7583C96.7049 13.74 96.6583 14.3467 96.6183 14.96C97.0716 14.3867 97.6116 13.9133 98.2383 13.54C98.8649 13.1533 99.6049 12.96 100.458 12.96C101.298 12.96 101.985 13.1 102.518 13.38C103.065 13.66 103.492 14.0467 103.798 14.54C104.118 15.0333 104.345 15.6 104.478 16.24C104.625 16.8667 104.718 17.5467 104.758 18.28C104.798 19 104.818 19.7267 104.818 20.46C104.818 21.26 104.805 22.0267 104.778 22.76C104.752 23.4933 104.725 24.1067 104.698 24.6C104.672 25.0933 104.652 25.3867 104.638 25.48H101.278C101.305 24.9333 101.332 24.3533 101.358 23.74C101.385 23.1133 101.412 22.5 101.438 21.9C101.465 21.2867 101.478 20.7333 101.478 20.24C101.478 17.4 101.018 15.98 100.098 15.98C99.3383 15.98 98.6449 16.3133 98.0183 16.98C97.4049 17.6333 96.8916 18.46 96.4783 19.46C96.4783 19.5933 96.4783 19.7267 96.4783 19.86C96.4783 20.5 96.4783 21.1667 96.4783 21.86C96.4916 22.54 96.5049 23.1933 96.5183 23.82C96.5449 24.4333 96.5649 24.9667 96.5783 25.42L93.3583 25.44ZM111.793 25.58C110.793 25.58 109.886 25.32 109.073 24.8C108.259 24.2933 107.613 23.6067 107.132 22.74C106.666 21.86 106.433 20.88 106.433 19.8C106.433 18.7867 106.619 17.8733 106.993 17.06C107.366 16.2333 107.873 15.5267 108.513 14.94C109.166 14.3533 109.906 13.9067 110.733 13.6C111.559 13.28 112.426 13.12 113.333 13.12C114.093 13.12 114.839 13.2267 115.573 13.44C115.626 13.16 115.673 12.88 115.713 12.6L119.133 13.18C119.039 13.4333 118.946 13.8133 118.853 14.32C118.759 14.8267 118.679 15.3933 118.613 16.02C118.559 16.6467 118.513 17.2733 118.473 17.9C118.433 18.5267 118.413 19.0933 118.413 19.6C118.413 20.0133 118.439 20.42 118.493 20.82C118.559 21.2067 118.693 21.5267 118.893 21.78C119.093 22.02 119.399 22.14 119.813 22.14H120.093L119.593 25.62C118.713 25.62 117.986 25.4667 117.413 25.16C116.839 24.8667 116.379 24.4667 116.033 23.96C115.459 24.6 114.806 25.0267 114.073 25.24C113.339 25.4667 112.579 25.58 111.793 25.58ZM109.713 20.2C109.779 20.84 110.039 21.3533 110.493 21.74C110.959 22.1133 111.546 22.3 112.253 22.3C112.933 22.3 113.499 22.12 113.953 21.76C114.406 21.3867 114.779 20.88 115.073 20.24C115.059 20.0267 115.053 19.8067 115.053 19.58C115.053 19.1133 115.066 18.6333 115.093 18.14C115.119 17.6467 115.153 17.16 115.193 16.68C114.633 16.4667 114.046 16.36 113.433 16.36C112.713 16.36 112.066 16.5067 111.493 16.8C110.933 17.08 110.493 17.4733 110.173 17.98C109.853 18.4867 109.693 19.0733 109.693 19.74C109.693 19.82 109.693 19.9 109.693 19.98C109.693 20.06 109.699 20.1333 109.713 20.2ZM121.503 25.44C121.463 24.2667 121.429 23.18 121.403 22.18C121.389 21.18 121.383 20.1933 121.383 19.22C121.383 18.2467 121.389 17.2733 121.403 16.3C121.429 15.3133 121.469 14.26 121.523 13.14H124.903C124.849 13.74 124.803 14.3467 124.763 14.96C125.216 14.3867 125.756 13.9133 126.383 13.54C127.009 13.1533 127.749 12.96 128.603 12.96C129.443 12.96 130.129 13.1 130.663 13.38C131.209 13.66 131.636 14.0467 131.943 14.54C132.263 15.0333 132.489 15.6 132.623 16.24C132.769 16.8667 132.863 17.5467 132.903 18.28C132.943 19 132.963 19.7267 132.963 20.46C132.963 21.26 132.949 22.0267 132.923 22.76C132.896 23.4933 132.869 24.1067 132.843 24.6C132.816 25.0933 132.796 25.3867 132.783 25.48H129.423C129.449 24.9333 129.476 24.3533 129.503 23.74C129.529 23.1133 129.556 22.5 129.583 21.9C129.609 21.2867 129.623 20.7333 129.623 20.24C129.623 17.4 129.163 15.98 128.243 15.98C127.483 15.98 126.789 16.3133 126.163 16.98C125.549 17.6333 125.036 18.46 124.623 19.46C124.623 19.5933 124.623 19.7267 124.623 19.86C124.623 20.5 124.623 21.1667 124.623 21.86C124.636 22.54 124.649 23.1933 124.663 23.82C124.689 24.4333 124.709 24.9667 124.723 25.42L121.503 25.44Z" fill="white"/>
</svg>
